<svg width="192" height="150" viewBox="0 0 192 150" fill="none" xmlns="http://www.w3.org/2000/svg">
<rect width="192" height="149.284" rx="15" fill="#006FCC"/>
<mask id="mask0_1666_1491" style="mask-type:alpha" maskUnits="userSpaceOnUse" x="0" y="0" width="192" height="150">
<rect width="192" height="149.284" rx="15" fill="#4FD1C5"/>
</mask>
<g mask="url(#mask0_1666_1491)">
<g opacity="0.2">
<circle cx="193.982" cy="149.064" r="156.05" stroke="white" stroke-opacity="0.2"/>
<circle cx="193.982" cy="149.064" r="134.885" stroke="white" stroke-opacity="0.2"/>
<circle cx="193.982" cy="149.064" r="110.8" stroke="white" stroke-opacity="0.2"/>
<circle cx="193.982" cy="149.064" r="86.7158" stroke="white" stroke-opacity="0.2"/>
<circle cx="193.982" cy="149.064" r="63.3609" stroke="white" stroke-opacity="0.2"/>
<circle cx="193.982" cy="149.064" r="42.1956" stroke="white" stroke-opacity="0.2"/>
<circle cx="193.982" cy="149.064" r="25.2615" stroke="white" stroke-opacity="0.2"/>
</g>
</g>
<rect x="14.0918" y="104.367" width="163.817" height="30.8257" rx="12" fill="white"/>
<g clip-path="url(#clip0_1666_1491)">
<rect x="68" y="119.777" width="0.0057526" height="0.0057526" fill="#C4C4C4"/>
</g>
<path d="M64.3479 113.774C64.8961 112.17 67.1126 112.121 67.7625 113.628L67.8175 113.775L68.5573 115.938C68.7268 116.434 69.0008 116.888 69.3607 117.269C69.7206 117.651 70.1581 117.95 70.6436 118.148L70.8425 118.222L73.0059 118.961C74.61 119.509 74.6586 121.726 73.1525 122.376L73.0059 122.431L70.8425 123.17C70.3462 123.34 69.892 123.614 69.5106 123.974C69.1292 124.334 68.8294 124.771 68.6315 125.257L68.5573 125.455L67.8184 127.619C67.2703 129.223 65.0538 129.272 64.4048 127.766L64.3479 127.619L63.6091 125.456C63.4397 124.959 63.1658 124.505 62.8059 124.124C62.446 123.742 62.0084 123.443 61.5228 123.245L61.3248 123.17L59.1614 122.432C57.5564 121.883 57.5078 119.667 59.0148 119.018L59.1614 118.961L61.3248 118.222C61.8209 118.053 62.2749 117.779 62.6562 117.419C63.0374 117.059 63.337 116.622 63.5349 116.136L63.6091 115.938L64.3479 113.774ZM66.0832 114.366L65.3444 116.529C65.0862 117.286 64.6663 117.977 64.1138 118.555C63.5613 119.132 62.8895 119.583 62.1452 119.874L61.916 119.958L59.7527 120.696L61.916 121.435C62.6725 121.693 63.3637 122.113 63.9414 122.666C64.5191 123.218 64.9694 123.89 65.2609 124.634L65.3444 124.864L66.0832 127.027L66.822 124.864C67.0802 124.107 67.5001 123.416 68.0526 122.838C68.6051 122.26 69.2769 121.81 70.0212 121.519L70.2504 121.436L72.4137 120.696L70.2504 119.958C69.4938 119.699 68.8027 119.279 68.225 118.727C67.6473 118.174 67.197 117.503 66.9054 116.758L66.8229 116.529L66.0832 114.366ZM73.4165 110.613C73.588 110.613 73.7561 110.661 73.9016 110.752C74.0471 110.843 74.1642 110.972 74.2397 111.126L74.2837 111.234L74.6045 112.174L75.5459 112.495C75.7178 112.553 75.8685 112.661 75.9788 112.806C76.0892 112.95 76.1543 113.123 76.1659 113.304C76.1774 113.486 76.135 113.666 76.0439 113.823C75.9528 113.98 75.8171 114.106 75.6541 114.186L75.5459 114.23L74.6054 114.551L74.2846 115.492C74.2261 115.664 74.1179 115.815 73.9738 115.925C73.8296 116.035 73.656 116.1 73.4749 116.112C73.2937 116.123 73.1133 116.081 72.9563 115.99C72.7994 115.898 72.6731 115.763 72.5934 115.6L72.5494 115.492L72.2285 114.552L71.2871 114.231C71.1152 114.173 70.9646 114.065 70.8542 113.921C70.7439 113.776 70.6788 113.603 70.6672 113.422C70.6556 113.241 70.698 113.06 70.7892 112.903C70.8803 112.746 71.0159 112.62 71.1789 112.54L71.2871 112.496L72.2276 112.175L72.5484 111.234C72.6102 111.053 72.7272 110.895 72.8829 110.784C73.0385 110.673 73.2252 110.613 73.4165 110.613Z" fill="#006FCC"/>
<path d="M82.0699 126.78L87.2899 111.98H89.7499L94.9899 126.78H92.9099L91.6699 123.24H85.3899L84.1499 126.78H82.0699ZM85.9899 121.48H91.0699L88.5299 114.22L85.9899 121.48ZM97.4965 126.78V111.98H100.076L104.436 120.78L108.776 111.98H111.356V126.78H109.436V114.86L105.356 122.98H103.496L99.4165 114.82V126.78H97.4965ZM113.847 126.78L119.067 111.98H121.527L126.767 126.78H124.687L123.447 123.24H117.167L115.927 126.78H113.847ZM117.767 121.48H122.847L120.307 114.22L117.767 121.48ZM129.274 126.78V111.98H131.234V126.78H129.274Z" fill="#006FCC"/>
<path d="M15.96 93V84.12H19.128C19.808 84.12 20.372 84.26 20.82 84.54C21.276 84.82 21.616 85.184 21.84 85.632C22.072 86.072 22.188 86.532 22.188 87.012C22.188 87.5 22.072 87.968 21.84 88.416C21.616 88.856 21.276 89.22 20.82 89.508C20.372 89.788 19.808 89.928 19.128 89.928H17.136V93H15.96ZM19.128 85.152H17.136V88.896H19.128C19.552 88.896 19.904 88.804 20.184 88.62C20.464 88.436 20.672 88.204 20.808 87.924C20.952 87.636 21.024 87.336 21.024 87.024C21.024 86.712 20.952 86.412 20.808 86.124C20.672 85.836 20.464 85.604 20.184 85.428C19.904 85.244 19.552 85.152 19.128 85.152ZM23.6827 93L23.6947 83.88H24.8227V93H23.6827ZM29.5133 93.12C28.9933 93.12 28.5413 93.028 28.1573 92.844C27.7813 92.652 27.4693 92.396 27.2213 92.076C26.9813 91.756 26.8013 91.404 26.6813 91.02C26.5613 90.628 26.5013 90.228 26.5013 89.82C26.5013 89.42 26.5573 89.024 26.6693 88.632C26.7893 88.24 26.9693 87.884 27.2093 87.564C27.4573 87.244 27.7653 86.992 28.1333 86.808C28.5093 86.616 28.9533 86.52 29.4653 86.52C30.0093 86.52 30.4893 86.644 30.9053 86.892C31.3213 87.14 31.6493 87.508 31.8893 87.996C32.1293 88.484 32.2493 89.096 32.2493 89.832V90.168H27.6533C27.6773 90.528 27.7613 90.86 27.9053 91.164C28.0573 91.46 28.2693 91.7 28.5413 91.884C28.8133 92.06 29.1373 92.148 29.5133 92.148C29.8413 92.148 30.1053 92.096 30.3053 91.992C30.5133 91.88 30.6773 91.752 30.7973 91.608C30.9173 91.464 30.9973 91.34 31.0373 91.236C31.0853 91.124 31.1093 91.068 31.1093 91.068H32.1773C32.1773 91.068 32.1573 91.14 32.1173 91.284C32.0773 91.42 32.0053 91.588 31.9013 91.788C31.7973 91.988 31.6453 92.192 31.4453 92.4C31.2453 92.6 30.9893 92.772 30.6773 92.916C30.3653 93.052 29.9773 93.12 29.5133 93.12ZM27.6653 89.28H31.1333C31.1173 88.864 31.0293 88.528 30.8693 88.272C30.7093 88.008 30.5053 87.812 30.2573 87.684C30.0093 87.556 29.7453 87.492 29.4653 87.492C28.9613 87.492 28.5493 87.656 28.2293 87.984C27.9093 88.304 27.7213 88.736 27.6653 89.28ZM36.5063 86.52C36.9063 86.52 37.2423 86.584 37.5143 86.712C37.7863 86.84 38.0063 86.992 38.1743 87.168C38.3423 87.336 38.4703 87.496 38.5583 87.648H38.6303V86.64H39.7703V93H38.6303V91.992H38.5583C38.4703 92.144 38.3423 92.308 38.1743 92.484C38.0063 92.66 37.7863 92.812 37.5143 92.94C37.2423 93.06 36.9063 93.12 36.5063 93.12C36.0263 93.12 35.6063 93.028 35.2463 92.844C34.8863 92.652 34.5863 92.4 34.3463 92.088C34.1063 91.768 33.9263 91.412 33.8063 91.02C33.6863 90.628 33.6263 90.228 33.6263 89.82C33.6263 89.412 33.6863 89.012 33.8063 88.62C33.9263 88.228 34.1063 87.876 34.3463 87.564C34.5863 87.244 34.8863 86.992 35.2463 86.808C35.6063 86.616 36.0263 86.52 36.5063 86.52ZM36.6983 87.492C36.2743 87.492 35.9183 87.608 35.6303 87.84C35.3423 88.064 35.1263 88.352 34.9823 88.704C34.8463 89.056 34.7783 89.428 34.7783 89.82C34.7783 90.204 34.8463 90.576 34.9823 90.936C35.1263 91.288 35.3423 91.58 35.6303 91.812C35.9183 92.036 36.2743 92.148 36.6983 92.148C37.1223 92.148 37.4743 92.036 37.7543 91.812C38.0423 91.58 38.2543 91.288 38.3903 90.936C38.5343 90.576 38.6063 90.204 38.6063 89.82C38.6063 89.428 38.5343 89.056 38.3903 88.704C38.2543 88.352 38.0423 88.064 37.7543 87.84C37.4743 87.608 37.1223 87.492 36.6983 87.492ZM43.7735 93.12C43.2855 93.12 42.8815 93.052 42.5615 92.916C42.2495 92.78 42.0015 92.612 41.8175 92.412C41.6335 92.204 41.4975 92 41.4095 91.8C41.3215 91.592 41.2655 91.42 41.2415 91.284C41.2175 91.148 41.2055 91.08 41.2055 91.08H42.3575C42.3575 91.08 42.3695 91.136 42.3935 91.248C42.4255 91.352 42.4855 91.476 42.5735 91.62C42.6695 91.756 42.8135 91.88 43.0055 91.992C43.2055 92.096 43.4695 92.148 43.7975 92.148C44.1735 92.148 44.4655 92.06 44.6735 91.884C44.8815 91.7 44.9855 91.476 44.9855 91.212C44.9855 90.98 44.9015 90.796 44.7335 90.66C44.5735 90.524 44.3415 90.42 44.0375 90.348L43.1735 90.144C42.8535 90.064 42.5535 89.956 42.2735 89.82C41.9935 89.684 41.7655 89.5 41.5895 89.268C41.4215 89.028 41.3375 88.732 41.3375 88.38C41.3375 87.836 41.5415 87.392 41.9495 87.048C42.3575 86.696 42.8895 86.52 43.5455 86.52C43.9855 86.52 44.3495 86.584 44.6375 86.712C44.9255 86.832 45.1535 86.984 45.3215 87.168C45.4975 87.352 45.6255 87.536 45.7055 87.72C45.7935 87.904 45.8495 88.06 45.8735 88.188C45.8975 88.308 45.9095 88.368 45.9095 88.368H44.8055C44.8055 88.368 44.7935 88.324 44.7695 88.236C44.7455 88.14 44.6895 88.036 44.6015 87.924C44.5215 87.804 44.3975 87.7 44.2295 87.612C44.0615 87.516 43.8375 87.468 43.5575 87.468C43.1735 87.468 42.8935 87.556 42.7175 87.732C42.5415 87.908 42.4535 88.1 42.4535 88.308C42.4535 88.508 42.5335 88.672 42.6935 88.8C42.8615 88.92 43.0775 89.012 43.3415 89.076L44.2175 89.28C44.7615 89.408 45.2095 89.62 45.5615 89.916C45.9215 90.204 46.1015 90.62 46.1015 91.164C46.1015 91.516 46.0095 91.844 45.8255 92.148C45.6415 92.444 45.3775 92.68 45.0335 92.856C44.6895 93.032 44.2695 93.12 43.7735 93.12ZM50.314 93.12C49.794 93.12 49.342 93.028 48.958 92.844C48.582 92.652 48.27 92.396 48.022 92.076C47.782 91.756 47.602 91.404 47.482 91.02C47.362 90.628 47.302 90.228 47.302 89.82C47.302 89.42 47.358 89.024 47.47 88.632C47.59 88.24 47.77 87.884 48.01 87.564C48.258 87.244 48.566 86.992 48.934 86.808C49.31 86.616 49.754 86.52 50.266 86.52C50.81 86.52 51.29 86.644 51.706 86.892C52.122 87.14 52.45 87.508 52.69 87.996C52.93 88.484 53.05 89.096 53.05 89.832V90.168H48.454C48.478 90.528 48.562 90.86 48.706 91.164C48.858 91.46 49.07 91.7 49.342 91.884C49.614 92.06 49.938 92.148 50.314 92.148C50.642 92.148 50.906 92.096 51.106 91.992C51.314 91.88 51.478 91.752 51.598 91.608C51.718 91.464 51.798 91.34 51.838 91.236C51.886 91.124 51.91 91.068 51.91 91.068H52.978C52.978 91.068 52.958 91.14 52.918 91.284C52.878 91.42 52.806 91.588 52.702 91.788C52.598 91.988 52.446 92.192 52.246 92.4C52.046 92.6 51.79 92.772 51.478 92.916C51.166 93.052 50.778 93.12 50.314 93.12ZM48.466 89.28H51.934C51.918 88.864 51.83 88.528 51.67 88.272C51.51 88.008 51.306 87.812 51.058 87.684C50.81 87.556 50.546 87.492 50.266 87.492C49.762 87.492 49.35 87.656 49.03 87.984C48.71 88.304 48.522 88.736 48.466 89.28ZM60.3833 93.12C59.8633 93.12 59.4073 93.028 59.0153 92.844C58.6233 92.652 58.2953 92.4 58.0313 92.088C57.7753 91.768 57.5793 91.412 57.4433 91.02C57.3153 90.628 57.2513 90.228 57.2513 89.82C57.2513 89.412 57.3153 89.016 57.4433 88.632C57.5713 88.24 57.7633 87.884 58.0193 87.564C58.2833 87.244 58.6113 86.992 59.0033 86.808C59.3953 86.616 59.8553 86.52 60.3833 86.52C60.8953 86.52 61.3193 86.596 61.6553 86.748C61.9913 86.9 62.2593 87.092 62.4593 87.324C62.6673 87.548 62.8193 87.776 62.9153 88.008C63.0193 88.232 63.0873 88.42 63.1193 88.572C63.1513 88.724 63.1673 88.8 63.1673 88.8H62.0633C62.0633 88.8 62.0433 88.736 62.0033 88.608C61.9633 88.472 61.8873 88.32 61.7753 88.152C61.6633 87.984 61.4953 87.836 61.2713 87.708C61.0473 87.572 60.7513 87.504 60.3833 87.504C59.9433 87.504 59.5713 87.616 59.2673 87.84C58.9713 88.056 58.7473 88.34 58.5953 88.692C58.4513 89.044 58.3793 89.42 58.3793 89.82C58.3793 90.22 58.4513 90.596 58.5953 90.948C58.7473 91.3 58.9713 91.588 59.2673 91.812C59.5713 92.028 59.9433 92.136 60.3833 92.136C60.7513 92.136 61.0473 92.072 61.2713 91.944C61.4953 91.808 61.6633 91.656 61.7753 91.488C61.8873 91.32 61.9633 91.172 62.0033 91.044C62.0433 90.908 62.0633 90.84 62.0633 90.84H63.1673C63.1673 90.84 63.1513 90.916 63.1193 91.068C63.0873 91.22 63.0193 91.412 62.9153 91.644C62.8193 91.868 62.6673 92.096 62.4593 92.328C62.2593 92.552 61.9913 92.74 61.6553 92.892C61.3193 93.044 60.8953 93.12 60.3833 93.12ZM64.8506 93V83.88H65.9906V87.564H66.0626C66.1186 87.468 66.2106 87.336 66.3386 87.168C66.4746 87 66.6666 86.852 66.9146 86.724C67.1626 86.588 67.4746 86.52 67.8506 86.52C68.3146 86.52 68.7106 86.628 69.0386 86.844C69.3666 87.052 69.6146 87.336 69.7826 87.696C69.9586 88.056 70.0466 88.46 70.0466 88.908V93H68.9066V88.98C68.9066 88.556 68.7866 88.204 68.5466 87.924C68.3146 87.644 67.9746 87.504 67.5266 87.504C67.1666 87.504 66.8746 87.596 66.6506 87.78C66.4266 87.956 66.2586 88.192 66.1466 88.488C66.0426 88.776 65.9906 89.084 65.9906 89.412V93H64.8506ZM74.6187 93.12C74.0987 93.12 73.6467 93.028 73.2627 92.844C72.8867 92.652 72.5747 92.396 72.3267 92.076C72.0867 91.756 71.9067 91.404 71.7867 91.02C71.6667 90.628 71.6067 90.228 71.6067 89.82C71.6067 89.42 71.6627 89.024 71.7747 88.632C71.8947 88.24 72.0747 87.884 72.3147 87.564C72.5627 87.244 72.8707 86.992 73.2387 86.808C73.6147 86.616 74.0587 86.52 74.5707 86.52C75.1147 86.52 75.5947 86.644 76.0107 86.892C76.4267 87.14 76.7547 87.508 76.9947 87.996C77.2347 88.484 77.3547 89.096 77.3547 89.832V90.168H72.7587C72.7827 90.528 72.8667 90.86 73.0107 91.164C73.1627 91.46 73.3747 91.7 73.6467 91.884C73.9187 92.06 74.2427 92.148 74.6187 92.148C74.9467 92.148 75.2107 92.096 75.4107 91.992C75.6187 91.88 75.7827 91.752 75.9027 91.608C76.0227 91.464 76.1027 91.34 76.1427 91.236C76.1907 91.124 76.2147 91.068 76.2147 91.068H77.2827C77.2827 91.068 77.2627 91.14 77.2227 91.284C77.1827 91.42 77.1107 91.588 77.0067 91.788C76.9027 91.988 76.7507 92.192 76.5507 92.4C76.3507 92.6 76.0947 92.772 75.7827 92.916C75.4707 93.052 75.0827 93.12 74.6187 93.12ZM72.7707 89.28H76.2387C76.2227 88.864 76.1347 88.528 75.9747 88.272C75.8147 88.008 75.6107 87.812 75.3627 87.684C75.1147 87.556 74.8507 87.492 74.5707 87.492C74.0667 87.492 73.6547 87.656 73.3347 87.984C73.0147 88.304 72.8267 88.736 72.7707 89.28ZM81.8637 93.12C81.3437 93.12 80.8877 93.028 80.4957 92.844C80.1037 92.652 79.7757 92.4 79.5117 92.088C79.2557 91.768 79.0597 91.412 78.9237 91.02C78.7957 90.628 78.7317 90.228 78.7317 89.82C78.7317 89.412 78.7957 89.016 78.9237 88.632C79.0517 88.24 79.2437 87.884 79.4997 87.564C79.7637 87.244 80.0917 86.992 80.4837 86.808C80.8757 86.616 81.3357 86.52 81.8637 86.52C82.3757 86.52 82.7997 86.596 83.1357 86.748C83.4717 86.9 83.7397 87.092 83.9397 87.324C84.1477 87.548 84.2997 87.776 84.3957 88.008C84.4997 88.232 84.5677 88.42 84.5997 88.572C84.6317 88.724 84.6477 88.8 84.6477 88.8H83.5437C83.5437 88.8 83.5237 88.736 83.4837 88.608C83.4437 88.472 83.3677 88.32 83.2557 88.152C83.1437 87.984 82.9757 87.836 82.7517 87.708C82.5277 87.572 82.2317 87.504 81.8637 87.504C81.4237 87.504 81.0517 87.616 80.7477 87.84C80.4517 88.056 80.2277 88.34 80.0757 88.692C79.9317 89.044 79.8597 89.42 79.8597 89.82C79.8597 90.22 79.9317 90.596 80.0757 90.948C80.2277 91.3 80.4517 91.588 80.7477 91.812C81.0517 92.028 81.4237 92.136 81.8637 92.136C82.2317 92.136 82.5277 92.072 82.7517 91.944C82.9757 91.808 83.1437 91.656 83.2557 91.488C83.3677 91.32 83.4437 91.172 83.4837 91.044C83.5237 90.908 83.5437 90.84 83.5437 90.84H84.6477C84.6477 90.84 84.6317 90.916 84.5997 91.068C84.5677 91.22 84.4997 91.412 84.3957 91.644C84.2997 91.868 84.1477 92.096 83.9397 92.328C83.7397 92.552 83.4717 92.74 83.1357 92.892C82.7997 93.044 82.3757 93.12 81.8637 93.12ZM86.3311 93V83.88H87.4711V89.184L90.0031 86.64H91.4911L88.5631 89.532L91.5511 93H90.0991L87.4711 89.94V93H86.3311ZM98.645 93.12C97.965 93.12 97.393 92.964 96.929 92.652C96.465 92.332 96.113 91.92 95.873 91.416C95.633 90.912 95.513 90.38 95.513 89.82C95.513 89.252 95.633 88.72 95.873 88.224C96.113 87.72 96.465 87.312 96.929 87C97.393 86.68 97.965 86.52 98.645 86.52C99.325 86.52 99.897 86.68 100.361 87C100.825 87.312 101.177 87.72 101.417 88.224C101.657 88.72 101.777 89.252 101.777 89.82C101.777 90.38 101.657 90.912 101.417 91.416C101.177 91.92 100.825 92.332 100.361 92.652C99.897 92.964 99.325 93.12 98.645 93.12ZM98.645 92.124C99.077 92.124 99.437 92.016 99.725 91.8C100.021 91.576 100.241 91.288 100.385 90.936C100.537 90.584 100.613 90.212 100.613 89.82C100.613 89.42 100.537 89.048 100.385 88.704C100.241 88.352 100.021 88.068 99.725 87.852C99.437 87.628 99.077 87.516 98.645 87.516C98.221 87.516 97.861 87.628 97.565 87.852C97.269 88.068 97.045 88.352 96.893 88.704C96.749 89.048 96.677 89.42 96.677 89.82C96.677 90.212 96.749 90.584 96.893 90.936C97.045 91.288 97.269 91.576 97.565 91.8C97.861 92.016 98.221 92.124 98.645 92.124ZM105.408 93.12C104.776 93.12 104.272 92.924 103.896 92.532C103.52 92.14 103.332 91.596 103.332 90.9V86.64H104.472V90.84C104.472 91.256 104.584 91.576 104.808 91.8C105.04 92.024 105.344 92.136 105.72 92.136C106.104 92.136 106.412 92.036 106.644 91.836C106.876 91.636 107.044 91.38 107.148 91.068C107.252 90.756 107.304 90.436 107.304 90.108V86.64H108.444V93H107.304V92.088H107.232C107.184 92.184 107.092 92.316 106.956 92.484C106.82 92.644 106.628 92.792 106.38 92.928C106.132 93.056 105.808 93.12 105.408 93.12ZM110.129 93V86.64H111.269V87.432H111.317C111.453 87.192 111.653 86.98 111.917 86.796C112.181 86.612 112.553 86.52 113.033 86.52C113.169 86.52 113.293 86.528 113.405 86.544C113.517 86.552 113.573 86.556 113.573 86.556V87.648C113.573 87.648 113.509 87.644 113.381 87.636C113.261 87.62 113.133 87.612 112.997 87.612C112.445 87.612 112.017 87.772 111.713 88.092C111.417 88.404 111.269 88.916 111.269 89.628V93H110.129ZM117.294 93L120.426 84.12H121.902L125.046 93H123.798L123.054 90.876H119.286L118.542 93H117.294ZM119.646 89.82H122.694L121.17 85.464L119.646 89.82ZM126.55 93V84.12H128.098L130.714 89.4L133.318 84.12H134.866V93H133.714V85.848L131.266 90.72H130.15L127.702 85.824V93H126.55ZM136.36 93L139.492 84.12H140.968L144.112 93H142.864L142.12 90.876H138.352L137.608 93H136.36ZM138.712 89.82H141.76L140.236 85.464L138.712 89.82ZM145.616 93V84.12H146.792V93H145.616Z" fill="white"/>
<path d="M15.008 78.0002V67.6402H16.912V76.3482H22.064V78.0002H15.008ZM24.9021 69.4322C24.5754 69.4322 24.3047 69.3249 24.0901 69.1102C23.8847 68.8956 23.7821 68.6389 23.7821 68.3402C23.7821 68.0416 23.8847 67.7849 24.0901 67.5702C24.3047 67.3556 24.5754 67.2482 24.9021 67.2482C25.2287 67.2482 25.4994 67.3556 25.7141 67.5702C25.9287 67.7849 26.0361 68.0416 26.0361 68.3402C26.0361 68.6389 25.9287 68.8956 25.7141 69.1102C25.4994 69.3249 25.2287 69.4322 24.9021 69.4322ZM23.9781 78.0002V70.5802H25.8401V78.0002H23.9781ZM30.0423 78.0002L27.2843 70.5802H29.1743L31.0363 75.8722L32.8703 70.5802H34.7603L31.9883 78.0002H30.0423ZM39.2469 78.1402C38.6123 78.1402 38.0616 78.0329 37.5949 77.8182C37.1376 77.5942 36.7549 77.3002 36.4469 76.9362C36.1483 76.5629 35.9243 76.1476 35.7749 75.6902C35.6256 75.2329 35.5509 74.7662 35.5509 74.2902C35.5509 73.8142 35.6209 73.3522 35.7609 72.9042C35.9103 72.4469 36.1296 72.0316 36.4189 71.6582C36.7176 71.2849 37.0956 70.9909 37.5529 70.7762C38.0103 70.5522 38.5516 70.4402 39.1769 70.4402C39.8489 70.4402 40.4416 70.5896 40.9549 70.8882C41.4683 71.1869 41.8696 71.6256 42.1589 72.2042C42.4483 72.7736 42.5929 73.4829 42.5929 74.3322V74.8082H37.4269C37.4549 75.3122 37.6276 75.7509 37.9449 76.1242C38.2623 76.4882 38.6963 76.6702 39.2469 76.6702C39.5643 76.6702 39.8256 76.6189 40.0309 76.5162C40.2363 76.4136 40.3949 76.2969 40.5069 76.1662C40.6189 76.0262 40.6983 75.9096 40.7449 75.8162C40.7916 75.7136 40.8149 75.6622 40.8149 75.6622H42.5369C42.5369 75.6622 42.5136 75.7462 42.4669 75.9142C42.4203 76.0729 42.3316 76.2782 42.2009 76.5302C42.0796 76.7729 41.8976 77.0202 41.6549 77.2722C41.4123 77.5149 41.0949 77.7202 40.7029 77.8882C40.3109 78.0562 39.8256 78.1402 39.2469 78.1402ZM37.4269 73.5902H40.8009C40.7729 73.0116 40.6003 72.5822 40.2829 72.3022C39.9656 72.0222 39.5923 71.8822 39.1629 71.8822C38.6869 71.8822 38.2903 72.0362 37.9729 72.3442C37.6556 72.6429 37.4736 73.0582 37.4269 73.5902ZM52.2641 78.1402C51.4241 78.1402 50.6867 77.9909 50.0521 77.6922C49.4267 77.3842 48.8994 76.9782 48.4701 76.4742C48.0501 75.9609 47.7327 75.3916 47.5181 74.7662C47.3127 74.1316 47.2101 73.4829 47.2101 72.8202C47.2101 72.1576 47.3127 71.5089 47.5181 70.8742C47.7327 70.2396 48.0501 69.6702 48.4701 69.1662C48.8994 68.6529 49.4267 68.2469 50.0521 67.9482C50.6867 67.6496 51.4241 67.5002 52.2641 67.5002C52.9641 67.5002 53.5661 67.5889 54.0701 67.7662C54.5741 67.9436 54.9941 68.1722 55.3301 68.4522C55.6661 68.7322 55.9321 69.0309 56.1281 69.3482C56.3334 69.6656 56.4874 69.9642 56.5901 70.2442C56.6927 70.5242 56.7581 70.7529 56.7861 70.9302C56.8234 71.1076 56.8421 71.1962 56.8421 71.1962H54.9521C54.9521 71.1962 54.9334 71.1309 54.8961 71.0002C54.8681 70.8696 54.8027 70.7062 54.7001 70.5102C54.6067 70.3049 54.4621 70.1042 54.2661 69.9082C54.0701 69.7122 53.8087 69.5489 53.4821 69.4182C53.1647 69.2876 52.7681 69.2222 52.2921 69.2222C51.7694 69.2222 51.3121 69.3249 50.9201 69.5302C50.5281 69.7262 50.2014 69.9969 49.9401 70.3422C49.6787 70.6876 49.4827 71.0749 49.3521 71.5042C49.2307 71.9336 49.1701 72.3722 49.1701 72.8202C49.1701 73.2682 49.2307 73.7069 49.3521 74.1362C49.4827 74.5562 49.6787 74.9389 49.9401 75.2842C50.2014 75.6296 50.5281 75.9049 50.9201 76.1102C51.3121 76.3156 51.7694 76.4182 52.2921 76.4182C52.7681 76.4182 53.1647 76.3529 53.4821 76.2222C53.8087 76.0822 54.0701 75.9142 54.2661 75.7182C54.4621 75.5222 54.6067 75.3262 54.7001 75.1302C54.8027 74.9342 54.8681 74.7709 54.8961 74.6402C54.9334 74.5002 54.9521 74.4302 54.9521 74.4302H56.8421C56.8421 74.4302 56.8234 74.5189 56.7861 74.6962C56.7581 74.8736 56.6927 75.1069 56.5901 75.3962C56.4874 75.6762 56.3334 75.9749 56.1281 76.2922C55.9321 76.6002 55.6661 76.8989 55.3301 77.1882C54.9941 77.4682 54.5741 77.6969 54.0701 77.8742C53.5661 78.0516 52.9641 78.1402 52.2641 78.1402ZM58.4846 78.0002V67.3602H60.3466V71.6442H60.4306C60.5052 71.5136 60.6219 71.3549 60.7806 71.1682C60.9392 70.9722 61.1586 70.8042 61.4386 70.6642C61.7186 70.5149 62.0732 70.4402 62.5026 70.4402C63.0719 70.4402 63.5386 70.5709 63.9026 70.8322C64.2759 71.0842 64.5512 71.4202 64.7286 71.8402C64.9152 72.2602 65.0086 72.7129 65.0086 73.1982V78.0002H63.1466V73.4502C63.1466 73.0489 63.0346 72.7036 62.8106 72.4142C62.5866 72.1249 62.2506 71.9802 61.8026 71.9802C61.4572 71.9802 61.1772 72.0689 60.9626 72.2462C60.7479 72.4142 60.5892 72.6336 60.4866 72.9042C60.3932 73.1749 60.3466 73.4596 60.3466 73.7582V78.0002H58.4846ZM69.8624 70.4402C70.3384 70.4402 70.7304 70.5196 71.0384 70.6782C71.3464 70.8276 71.5891 70.9956 71.7664 71.1822C71.9437 71.3596 72.0651 71.5042 72.1304 71.6162H72.2144V70.5802H74.0764V78.0002H72.2144V76.9642H72.1304C72.0651 77.0762 71.9437 77.2256 71.7664 77.4122C71.5891 77.5989 71.3464 77.7669 71.0384 77.9162C70.7304 78.0656 70.3384 78.1402 69.8624 78.1402C69.3117 78.1402 68.8311 78.0329 68.4204 77.8182C68.0097 77.5942 67.6644 77.3002 67.3844 76.9362C67.1137 76.5629 66.9084 76.1476 66.7684 75.6902C66.6377 75.2329 66.5724 74.7662 66.5724 74.2902C66.5724 73.8142 66.6377 73.3476 66.7684 72.8902C66.9084 72.4329 67.1137 72.0222 67.3844 71.6582C67.6644 71.2849 68.0097 70.9909 68.4204 70.7762C68.8311 70.5522 69.3117 70.4402 69.8624 70.4402ZM70.3524 71.9662C69.9324 71.9662 69.5777 72.0829 69.2884 72.3162C69.0084 72.5402 68.7984 72.8296 68.6584 73.1842C68.5184 73.5389 68.4484 73.9076 68.4484 74.2902C68.4484 74.6729 68.5184 75.0416 68.6584 75.3962C68.7984 75.7509 69.0084 76.0449 69.2884 76.2782C69.5777 76.5022 69.9324 76.6142 70.3524 76.6142C70.7724 76.6142 71.1224 76.5022 71.4024 76.2782C71.6824 76.0449 71.8924 75.7509 72.0324 75.3962C72.1724 75.0416 72.2424 74.6729 72.2424 74.2902C72.2424 73.9076 72.1724 73.5389 72.0324 73.1842C71.8924 72.8296 71.6824 72.5402 71.4024 72.3162C71.1224 72.0829 70.7724 71.9662 70.3524 71.9662ZM78.9992 78.1402C78.4952 78.1402 78.0798 78.0656 77.7532 77.9162C77.4265 77.7669 77.1698 77.5709 76.9832 77.3282C76.8058 77.0856 76.6798 76.8196 76.6052 76.5302C76.5305 76.2409 76.4932 75.9562 76.4932 75.6762V72.0782H75.2192V70.5802H76.4932V68.7322H78.3552V70.5802H80.0212V72.0782H78.3552V75.6342C78.3552 76.2969 78.7285 76.6282 79.4752 76.6282C79.6525 76.6282 79.8158 76.6189 79.9652 76.6002C80.1238 76.5722 80.2032 76.5582 80.2032 76.5582V78.0142C80.2032 78.0142 80.0818 78.0329 79.8392 78.0702C79.6058 78.1169 79.3258 78.1402 78.9992 78.1402Z" fill="white"/>
<rect x="15" y="14" width="31" height="31" rx="12" fill="white"/>
<path d="M27.693 24.1179C28.2637 22.5354 30.5716 22.4875 31.2483 23.9741L31.3056 24.1188L32.0758 26.2529C32.2524 26.7423 32.5376 27.1902 32.9123 27.5663C33.2871 27.9424 33.7426 28.2379 34.2482 28.4331L34.4553 28.5063L36.7078 29.2352C38.3781 29.7759 38.4287 31.9624 36.8605 32.6036L36.7078 32.6578L34.4553 33.3876C33.9385 33.5547 33.4656 33.8249 33.0685 34.1799C32.6713 34.535 32.3592 34.9666 32.1531 35.4457L32.0758 35.641L31.3065 37.776C30.7358 39.3584 28.4279 39.4064 27.7522 37.9206L27.693 37.776L26.9237 35.6419C26.7473 35.1523 26.4621 34.7043 26.0873 34.328C25.7126 33.9517 25.257 33.656 24.7514 33.4608L24.5452 33.3876L22.2927 32.6587C20.6214 32.118 20.5709 29.9314 22.14 29.2912L22.2927 29.2352L24.5452 28.5063C25.0618 28.3391 25.5345 28.0688 25.9315 27.7138C26.3284 27.3588 26.6404 26.9272 26.8464 26.4482L26.9237 26.2529L27.693 24.1179ZM29.4998 24.7021L28.7305 26.8361C28.4617 27.5824 28.0244 28.2643 27.4492 28.8341C26.8739 29.404 26.1744 29.8482 25.3994 30.1358L25.1608 30.2181L22.9083 30.9469L25.1608 31.6758C25.9485 31.9304 26.6682 32.3447 27.2697 32.8897C27.8712 33.4348 28.34 34.0974 28.6436 34.8317L28.7305 35.0577L29.4998 37.1918L30.2691 35.0577C30.5378 34.3114 30.9751 33.6296 31.5504 33.0598C32.1257 32.4899 32.8251 32.0457 33.6001 31.7581L33.8387 31.6767L36.0912 30.9469L33.8387 30.2181C33.051 29.9634 32.3313 29.5492 31.7298 29.0042C31.1284 28.4591 30.6595 27.7964 30.3559 27.0622L30.27 26.8361L29.4998 24.7021ZM37.1354 21C37.3139 21 37.4889 21.0475 37.6404 21.137C37.7919 21.2265 37.9139 21.3545 37.9925 21.5064L38.0383 21.6122L38.3724 22.54L39.3526 22.8565C39.5315 22.9141 39.6884 23.0207 39.8033 23.1628C39.9182 23.305 39.986 23.4763 39.9981 23.6549C40.0101 23.8336 39.9659 24.0117 39.8711 24.1666C39.7762 24.3214 39.6349 24.4461 39.4652 24.5248L39.3526 24.5682L38.3733 24.8847L38.0393 25.8134C37.9784 25.9829 37.8657 26.1314 37.7156 26.2402C37.5655 26.349 37.3847 26.4131 37.1961 26.4244C37.0075 26.4358 36.8196 26.3938 36.6562 26.3039C36.4928 26.2139 36.3613 26.0801 36.2783 25.9192L36.2325 25.8134L35.8984 24.8856L34.9182 24.5691C34.7392 24.5115 34.5824 24.4049 34.4675 24.2628C34.3526 24.1206 34.2848 23.9493 34.2727 23.7707C34.2607 23.592 34.3049 23.4139 34.3997 23.2591C34.4946 23.1042 34.6358 22.9795 34.8056 22.9008L34.9182 22.8574L35.8975 22.5409L36.2315 21.6122C36.2959 21.4335 36.4176 21.2784 36.5797 21.1686C36.7418 21.0589 36.9361 20.9999 37.1354 21Z" fill="#006FCC"/>
<defs>
<clipPath id="clip0_1666_1491">
<rect width="24.0058" height="0.00576161" fill="white" transform="translate(56 119.777)"/>
</clipPath>
</defs>
</svg>
